<?xml version="1.0" encoding="utf-8"?>
<!-- Generator: Adobe Illustrator 19.0.0, SVG Export Plug-In . SVG Version: 6.00 Build 0)  -->
<svg version="1.1" xmlns="http://www.w3.org/2000/svg" xmlns:xlink="http://www.w3.org/1999/xlink" x="0px" y="0px"
	 viewBox="0 0 960 560" style="enable-background:new 0 0 960 560;" xml:space="preserve">
<style type="text/css">
	.st0{fill:#FFFFFF;stroke:#000000;stroke-miterlimit:10;}
	.st1{fill:#FFFFFF;stroke:#000000;stroke-width:2;stroke-miterlimit:10;}
	.st2{fill:none;stroke:#000000;stroke-width:0.5;stroke-miterlimit:10;}
	.st3{fill:none;stroke:#000000;stroke-miterlimit:10;}
	.st4{font-family:'MyriadPro-Regular';}
	.st5{font-size:16px;}
	.st6{font-size:14.0455px;}
	.st7{font-size:13.6747px;}
	.st8{fill:none;stroke:#808080;stroke-miterlimit:10;}
	.st9{stroke:#000000;stroke-miterlimit:10;}
</style>
<script src="buttons.js"></script>

<g id="Screens">
	<rect id="XMLID_1_" x="0.4" y="73.5" class="st0" width="478.5" height="412.8"/>
	<rect id="XMLID_2_" x="13.2" y="85.1" class="st0" width="453.4" height="390.9"/>
	<circle id="XMLID_6_" class="st0" cx="472.7" cy="481.1" r="3.7"/>
	<circle id="XMLID_7_" class="st0" cx="462.2" cy="481.1" r="3.7"/>
	<circle id="XMLID_8_" class="st0" cx="442.3" cy="481.1" r="3.7"/>
	<circle id="XMLID_9_" class="st0" cx="452.4" cy="481.1" r="3.7"/>
	<circle id="XMLID_10_" class="st0" cx="432.2" cy="481.1" r="3.7"/>
	<rect id="XMLID_26_" x="480.4" y="73.5" class="st0" width="478.5" height="412.8"/>
	<rect id="XMLID_25_" x="493.2" y="86.1" class="st0" width="453.4" height="390.9"/>
	<circle id="XMLID_23_" class="st0" cx="952.7" cy="482.1" r="3.7"/>
	<circle id="XMLID_22_" class="st0" cx="942.2" cy="482.1" r="3.7"/>
	<circle id="XMLID_21_" class="st0" cx="922.3" cy="482.1" r="3.7"/>
	<circle id="XMLID_20_" class="st0" cx="932.4" cy="482.1" r="3.7"/>
	<circle id="XMLID_15_" class="st0" cx="912.2" cy="482.1" r="3.7"/>
</g>
<g id="Background">
	<path id="XMLID_19_" class="st1" d="M279.7,250.5"/>
	<polyline id="XMLID_4_" class="st2" points="315.6,250.5 421.4,191.5 412.8,176.2 279.7,250.5 44.4,250.5 44.4,268 248.3,268 
		142.6,326.9 151.1,342.2 284.3,268 442.3,268 442.3,250.5 315.6,250.5 	"/>
	<polygon id="XMLID_5_" class="st1" points="260.5,236 253,229.3 253,220.3 260.5,214 269.5,214 276,220.3 276,229.3 269.5,236 	"/>
	<rect id="XMLID_11_" x="76.6" y="214" class="st0" width="47.8" height="22.5"/>
	<rect id="XMLID_12_" x="140.5" y="214" class="st0" width="47.8" height="22.5"/>
	<path id="XMLID_14_" class="st3" d="M188.3,236.5c0,7.7,6.3,14,14,14"/>
	<path id="XMLID_18_" class="st3" d="M138.4,250.5"/>
	<path id="XMLID_17_" class="st3" d="M126.5,250.5"/>
	<path id="XMLID_16_" class="st3" d="M140,236.5c0,5.6-3.2,10.4-8.5,12.7v0c-4.5-2.2-7.8-7.1-7.8-12.7"/>
	<path id="XMLID_13_" class="st3" d="M76.6,236.5c0,7.7-6.3,14-14,14"/>
	<path id="XMLID_3_" class="st0" d="M220.9,262.5"/>
	<path id="XMLID_31_" class="st3" d="M924,466H515c-6.6,0-12-5.4-12-12V108c0-6.6,5.4-12,12-12h409c6.6,0,12,5.4,12,12v346
		C936,460.6,930.6,466,924,466z"/>
	<line id="XMLID_28_" class="st3" x1="719.5" y1="95" x2="719.5" y2="465"/>
	<line id="XMLID_35_" class="st3" x1="608.5" y1="96" x2="608.5" y2="466"/>
	<line id="XMLID_36_" class="st3" x1="827.5" y1="95" x2="827.5" y2="466"/>
	<text id="XMLID_27_" transform="matrix(0.9257 0 0 1 612.5479 112.3332)" class="st4 st5">Clear to take off</text>
	<text id="XMLID_29_" transform="matrix(1 0 0 1 728.9134 112.3332)" class="st4 st5">Clear to load</text>
	<line id="XMLID_30_" class="st3" x1="503" y1="387.5" x2="608" y2="387.5"/>
	<text id="XMLID_37_" transform="matrix(1 0 0 1 509.9805 405.6664)" class="st4 st5">Current Plane</text>
	<text id="XMLID_38_" transform="matrix(1 0 0 1 847.8835 112.3332)" class="st4 st5">Incoming</text>
	<text id="XMLID_39_" transform="matrix(1 0 0 1 507.9063 130.6973)" class="st4 st6">Clear for take off</text>
	<text id="XMLID_40_" transform="matrix(1 0 0 1 508.3027 179.7203)" class="st4 st7">Clear for landing</text>
	<text id="XMLID_41_" transform="matrix(1 0 0 1 514.2698 292.5)" class="st4 st5">Next plane</text>
	<path id="XMLID_47_" class="st3" d="M551.3,329.5"/>
	<path id="XMLID_46_" class="st3" d="M555.5,315"/>
</g>
<g id="Buttons">
	<ellipse onclick="clearTakeOff();" id="XMLID_43_" class="st3" cx="553.2" cy="202.2" rx="11.5" ry="11.2"/>
	<ellipse onclick="clearLanding();" id="XMLID_42_" class="st3" cx="553.2" cy="151.2" rx="11.5" ry="11.2"/>
	<polyline onclick="nextPlane();" id="XMLID_45_" class="st3" points="558.5,325 558.5,332 582,318.5 558.5,304.9 558.5,311 558.5,311.5 529.5,311.5 
		529.5,325.5 558,325.5 	"/>
</g>
<g id="Paths">
	<path id="XMLID_24_" class="st8" d="M82,259.5h292.9c0,0-162.7,0-0.1,0S393.8,413,393.8,413c-55.7,63-378.1,0-378.1,0"/>
</g>
<g id="Planes">
	<path id="XMLID_32_" class="st9" d="M87.5,260.2c-0.3,0.5-0.6,0.9-1.1,1c-0.3,0.1-0.7,0.2-1,0.2c-1.5,0-3,0-4.4,0
		c-0.2,0-0.2,0.1-0.3,0.2c-1.4,2.5-2.8,5.1-4.2,7.6c-0.1,0.3-0.3,0.4-0.6,0.4c-0.5,0-1.1,0-1.6,0c-0.4,0-0.6-0.2-0.5-0.7
		c0.4-1.9,0.8-3.7,1.2-5.6c0.1-0.6,0.3-1.2,0.4-1.8c0-0.1,0-0.1,0-0.2c-0.1,0-0.1,0-0.2,0c-1.4,0-2.9,0-4.3,0
		c-0.1,0-0.2,0.1-0.3,0.1c-1.1,1.1-2.2,2.2-3.3,3.3c-0.2,0.2-0.3,0.2-0.5,0.2c-0.2,0-0.5,0-0.7,0c-0.2,0-0.3-0.1-0.3-0.3
		c-0.1-0.8,0.2-1.5,0.4-2.2c0.4-1.1,0.7-2.2,1.1-3.3c0-0.1,0-0.3,0-0.4c-0.5-1.4-1-2.9-1.4-4.3c-0.1-0.4-0.1-0.9-0.1-1.3
		c0,0,0.1-0.1,0.2-0.1c0.3,0,0.7,0,1,0c0.1,0,0.2,0.1,0.3,0.2c1.1,1.1,2.2,2.2,3.3,3.3c0.1,0.1,0.2,0.1,0.3,0.1c1.5,0,2.9,0,4.4,0
		c0,0,0.1,0,0.1,0c0-0.1,0-0.1,0-0.2c-0.5-2.4-1.1-4.9-1.6-7.3c-0.1-0.4,0.1-0.7,0.5-0.7c0.5,0,1.1,0,1.6,0c0.3,0,0.4,0.1,0.6,0.3
		c1.4,2.5,2.8,5.1,4.2,7.6c0.1,0.2,0.2,0.2,0.4,0.2c1.4,0,2.8,0,4.2,0c1,0,1.9,0.3,2.4,1.3C87.5,258.9,87.5,259.5,87.5,260.2z
		 M66.6,254.3C66.6,254.3,66.6,254.3,66.6,254.3c0,0.1,0,0.2,0,0.2c0.5,1.5,1,3,1.5,4.4c0,0.1,0.1,0.3,0,0.5c-0.5,1.5-1,3-1.5,4.6
		c0,0.1,0,0.1,0,0.2c0,0,0,0,0.1,0c0.1-0.1,0.1-0.2,0.2-0.2c1.1-1.1,2.2-2.1,3.2-3.2c0.1-0.1,0.3-0.2,0.5-0.2c1.7,0,3.5,0,5.2,0
		c0.5,0,0.6,0.2,0.5,0.7c-0.5,2.1-0.9,4.2-1.4,6.2c-0.1,0.4-0.2,0.8-0.3,1.3c0.3,0,0.5,0,0.7,0c0.2,0,0.3,0,0.3-0.2
		c1.4-2.5,2.8-5.1,4.2-7.6c0.1-0.3,0.3-0.4,0.6-0.4c1.6,0,3.2,0,4.8,0c0.8,0,1.4-0.6,1.4-1.4c0-0.7-0.6-1.3-1.4-1.3
		c-1.6,0-3.3,0-4.9,0c-0.3,0-0.4-0.1-0.6-0.3c-0.6-1.1-1.3-2.3-1.9-3.4c-0.8-1.4-1.6-2.8-2.4-4.3c0-0.1-0.1-0.1-0.1-0.2
		c-0.3,0-0.6,0-0.9,0c0,0.1,0,0.1,0,0.2c0.5,2.5,1.1,4.9,1.6,7.4c0.1,0.5-0.1,0.7-0.5,0.7c-1.7,0-3.5,0-5.2,0
		c-0.2,0-0.4-0.1-0.5-0.2c-1.1-1.1-2.2-2.1-3.3-3.2C66.7,254.4,66.7,254.3,66.6,254.3z">
        <animateTransform attributeName="transform"
                attributeType="XML"
                type="translate"
                from="0 0"
                to="150 0"
                begin="0s"
                dur="2s"
                repeatCount="indefinite"
        />
</g>
</svg>
