<?xml version="1.0" encoding="utf-8"?>
<!-- Generator: Adobe Illustrator 19.0.0, SVG Export Plug-In . SVG Version: 6.00 Build 0)  -->
<svg version="1.1" xmlns="http://www.w3.org/2000/svg" xmlns:xlink="http://www.w3.org/1999/xlink" x="0px" y="0px"
	 viewBox="0 0 960 560" style="enable-background:new 0 0 960 560;" xml:space="preserve">
<style type="text/css">
	.st0{fill:#FFFFFF;stroke:#000000;stroke-miterlimit:10;}
	.st1{fill:#FFFFFF;stroke:#000000;stroke-width:2;stroke-miterlimit:10;}
	.st2{fill:none;stroke:#000000;stroke-width:0.5;stroke-miterlimit:10;}
	.st3{fill:none;stroke:#000000;stroke-miterlimit:10;}
	.st4{font-family:'MyriadPro-Regular';}
	.st5{font-size:16px;}
	.st6{font-size:14.0455px;}
	.st7{font-size:13.6747px;}
	.st8{font-size:17.166px;}
	.st9{fill:none;stroke:#808080;stroke-miterlimit:10;}
	.st10{fill:#00FF00;stroke:#000000;stroke-width:6;stroke-miterlimit:10;}
	.st11{fill:#FFFF00;}
	.st12{fill:none;stroke:#000000;stroke-width:6;stroke-miterlimit:10;}
</style>


<g id="Screens">
	<rect id="XMLID_1_" x="0.4" y="73.5" class="st0" width="478.5" height="412.8"/>
	<rect id="XMLID_2_" x="13.2" y="85.1" class="st0" width="453.4" height="390.9"/>
	<circle id="XMLID_6_" class="st0" cx="472.7" cy="481.1" r="3.7"/>
	<circle id="XMLID_7_" class="st0" cx="462.2" cy="481.1" r="3.7"/>
	<circle id="XMLID_8_" class="st0" cx="442.3" cy="481.1" r="3.7"/>
	<circle id="XMLID_9_" class="st0" cx="452.4" cy="481.1" r="3.7"/>
	<circle id="XMLID_10_" class="st0" cx="432.2" cy="481.1" r="3.7"/>
	<rect id="XMLID_26_" x="480.4" y="73.5" class="st0" width="478.5" height="412.8"/>
	<rect id="XMLID_25_" x="493.2" y="86.1" class="st0" width="453.4" height="390.9"/>
	<circle id="XMLID_23_" class="st0" cx="952.7" cy="482.1" r="3.7"/>
	<circle id="XMLID_22_" class="st0" cx="942.2" cy="482.1" r="3.7"/>
	<circle id="XMLID_21_" class="st0" cx="922.3" cy="482.1" r="3.7"/>
	<circle id="XMLID_20_" class="st0" cx="932.4" cy="482.1" r="3.7"/>
	<circle id="XMLID_15_" class="st0" cx="912.2" cy="482.1" r="3.7"/>
</g>
<g id="Background">
	<path id="XMLID_19_" class="st1" d="M279.7,250.5"/>
	<polyline id="XMLID_4_" class="st2" points="315.6,250.5 421.4,191.5 412.8,176.2 279.7,250.5 44.4,250.5 44.4,268 248.3,268 
		142.6,326.9 151.1,342.2 284.3,268 442.3,268 442.3,250.5 315.6,250.5 	"/>
	<polygon id="XMLID_5_" class="st1" points="260.5,236 253,229.3 253,220.3 260.5,214 269.5,214 276,220.3 276,229.3 269.5,236 	"/>
	<rect id="XMLID_11_" x="76.6" y="214" class="st0" width="47.8" height="22.5"/>
	<rect id="XMLID_12_" x="140.5" y="214" class="st0" width="47.8" height="22.5"/>
	<path id="XMLID_14_" class="st3" d="M188.3,236.5c0,7.7,6.3,14,14,14"/>
	<path id="XMLID_18_" class="st3" d="M138.4,250.5"/>
	<path id="XMLID_17_" class="st3" d="M126.5,250.5"/>
	<path id="XMLID_16_" class="st3" d="M140.5,236.5c0,3.3-3.2,6.1-8.4,7.4v0c-4.4-1.3-7.7-4.1-7.7-7.4"/>
	<path id="XMLID_13_" class="st3" d="M76.6,236.5c0,7.7-6.3,14-14,14"/>
	<path id="XMLID_3_" class="st0" d="M220.9,262.5"/>
	<path id="XMLID_31_" class="st3" d="M924,466H515c-6.6,0-12-5.4-12-12V108c0-6.6,5.4-12,12-12h409c6.6,0,12,5.4,12,12v346
		C936,460.6,930.6,466,924,466z"/>
	<line id="XMLID_28_" class="st3" x1="719.5" y1="95" x2="719.5" y2="465"/>
	<line id="XMLID_35_" class="st3" x1="608.5" y1="96" x2="608.5" y2="466"/>
	<line id="XMLID_36_" class="st3" x1="827.5" y1="95" x2="827.5" y2="466"/>
	<text id="XMLID_27_" transform="matrix(0.9257 0 0 1 612.5479 112.3332)" class="st4 st5">Clear to take off</text>
	<text id="TakeOff0" transform="matrix(1 0 0 1 650 138.0)" class="st4 st5"></text>
	<text id="TakeOff1" transform="matrix(1 0 0 1 650 168.0)" class="st4 st5"></text>
	<text id="TakeOff2" transform="matrix(1 0 0 1 650 198.0)" class="st4 st5"></text>
	<text id="TakeOff3" transform="matrix(1 0 0 1 650 228.0)" class="st4 st5"></text>
	<text id="TakeOff4" transform="matrix(1 0 0 1 650 258.0)" class="st4 st5"></text>
	<text id="TakeOff5" transform="matrix(1 0 0 1 650 288.0)" class="st4 st5"></text>
	<text id="TakeOff6" transform="matrix(1 0 0 1 650 318.0)" class="st4 st5"></text>
	<text id="TakeOff7" transform="matrix(1 0 0 1 650 348.0)" class="st4 st5"></text>
	<text id="TakeOff8" transform="matrix(1 0 0 1 650 378.0)" class="st4 st5"></text>
	<text id="XMLID_29_" transform="matrix(1 0 0 1 728.9134 112.3332)" class="st4 st5">Clear to load</text>
	<text id="Load0" transform="matrix(1 0 0 1 760 138.0)" class="st4 st5"></text>
	<text id="Load1" transform="matrix(1 0 0 1 760 168.0)" class="st4 st5"></text>
	<text id="Load2" transform="matrix(1 0 0 1 760 198.0)" class="st4 st5"></text>
	<text id="Load3" transform="matrix(1 0 0 1 760 228.0)" class="st4 st5"></text>
	<text id="Load4" transform="matrix(1 0 0 1 760 258.0)" class="st4 st5"></text>
	<text id="Load5" transform="matrix(1 0 0 1 760 288.0)" class="st4 st5"></text>
	<text id="Load6" transform="matrix(1 0 0 1 760 318.0)" class="st4 st5"></text>
	<text id="Load7" transform="matrix(1 0 0 1 760 348.0)" class="st4 st5"></text>
	<text id="Load8" transform="matrix(1 0 0 1 760 378.0)" class="st4 st5"></text>
	<line id="XMLID_30_" class="st3" x1="503" y1="387.5" x2="608" y2="387.5"/>
	<text id="XMLID_37_" transform="matrix(1 0 0 1 509.9805 405.6664)" class="st4 st5">Current Plane</text>
	<text id="XMLID_38_" transform="matrix(1 0 0 1 847.8835 112.3332)" class="st4 st5">Incoming</text>
	<text id="XMLID_39_" transform="matrix(1 0 0 1 507.9063 130.6973)" class="st4 st6">Clear for take off</text>
	<text id="XMLID_40_" transform="matrix(1 0 0 1 508.3027 179.7203)" class="st4 st7">Clear for landing</text>
	<text id="XMLID_41_" transform="matrix(0.9321 0 0 1 514.2695 293.4766)" class="st4 st8">Next plane</text>
	<text id="Message" transform="matrix(1 0 0 1 615 280)" class="st4 st5">M9 is seeking clearance to land!</text>
	<path id="XMLID_47_" class="st3" d="M551,331.9"/>
	<path id="XMLID_46_" class="st3" d="M555.5,315"/>
<ellipse onclick="clearLanding();" id="XMLID_43_" class="st3" cx="553.2" cy="202.2" rx="11.5" ry="11.2"/>
<ellipse onclick="clearTakeOff();" id="XMLID_42_" class="st3" cx="553.2" cy="151.2" rx="11.5" ry="11.2"/>
<polyline onclick="nextPlane();" id="XMLID_45_" class="st3" points="558.5,325 558.5,332 582,318.5 558.5,304.9 558.5,311 558.5,311.5 529.5,311.5 
529.5,325.5 558,325.5 "/>																																 
</g>
<g id="Paths">
	<path id="XMLID_24_" class="st9" d="M82,259.5h292.9c0,0-162.7,0-0.1,0S393.8,413,393.8,413c-55.7,63-378.1,0-378.1,0"/>
</g>
<g id="Highlights">
	<ellipse id="XMLID_32_" class="st10" cx="553.2" cy="202.2" rx="11.5" ry="11.2"/>
	<ellipse id="XMLID_44_" class="st10" cx="553.2" cy="151.2" rx="11.5" ry="11.2"/>
	<g id="XMLID_34_">
		<path id="XMLID_58_" class="st11" d="M83,270.5c-0.2,0-0.4,0-0.6,0l-1,0c-0.5,0-0.7-0.2-0.8-0.4c-0.1-0.2-0.3-0.5-0.2-0.9l1.5-6.9
			l-1.4,0c-0.8,0-1.7,0-2.5,0c-1.1,1.1-2.2,2.2-3.3,3.3c-0.2,0.2-0.5,0.4-0.9,0.4c-0.1,0-0.5,0-0.5,0l-0.2,0c-0.4,0-0.7-0.3-0.8-0.7
			c-0.1-0.9,0.2-1.6,0.4-2.3c0.4-1.1,0.8-2.2,1.1-3.3c-0.2-0.5-0.3-1-0.5-1.5c-0.3-1-0.6-1.9-0.9-2.9c-0.1-0.4-0.1-0.7-0.1-1.1
			c0-0.1,0-0.2,0-0.3c0-0.4,0.4-0.6,0.6-0.6c0.2,0,0.4,0,0.6,0s0.3,0,0.5,0c0.3,0,0.5,0.2,0.6,0.3l3.3,3.3c0.6,0,1.3,0,2,0
			c0.2,0,1.9,0,1.9,0l-1.5-6.9c-0.1-0.5,0-0.7,0.2-0.9c0.2-0.2,0.5-0.4,0.9-0.4l1,0c0.2,0,0.6,0,0.6,0c0.5,0,0.8,0.2,1,0.6
			c0,0,3.4,6.2,4.2,7.6l0.6,0l1.9,0c0.5,0,1.1,0,1.6,0l0.1,0c1.2,0,2.1,0.5,2.7,1.5l0.1,0.3v2l-0.1,0.3c-0.2,0.4-0.7,1-1.4,1.3
			c-0.4,0.1-0.8,0.2-1.2,0.2c-0.7,0-1.3,0-2,0c-0.8,0-1.6,0-2.4,0c0,0-3.4,6.2-4.2,7.6C83.8,270.3,83.5,270.5,83,270.5L83,270.5z"/>
	</g>
	<path id="XMLID_48_" class="st3" d="M557.9,335.1"/>
	<path id="XMLID_49_" class="st3" d="M560.2,335.3"/>
	<g id="XMLID_51_">
		<polyline id="XMLID_57_" class="st10" points="560.2,335.9 526.3,335.9 526.3,318.8 560.2,318.8 		"/>
		<path id="XMLID_53_" class="st10" d="M560.2,318.8c0-2.2,0-4.3,0-6.5c7.5,4.4,15.1,8.7,22.6,13.1c1.1,0.6,2.2,1.3,3.3,1.9
			c-7.5,4.4-15.1,8.7-22.6,13.1c-1.1,0.6-2.2,1.3-3.3,1.9c0-2.2,0-4.4,0-6.6"/>
	</g>
</g>
<g id="Buttons">
	<ellipse id="XMLID_43_" class="st12" cx="553.2" cy="202.2" rx="11.5" ry="11.2"/>
	<ellipse id="XMLID_42_" class="st12" cx="553.2" cy="151.2" rx="11.5" ry="11.2"/>
	<g id="XMLID_65_">
		<polyline id="XMLID_67_" class="st12" points="560.2,335.9 526.3,335.9 526.3,318.8 560.2,318.8 		"/>
		<path id="XMLID_66_" class="st12" d="M560.2,318.8c0-2.2,0-4.3,0-6.5c7.5,4.4,15.1,8.7,22.6,13.1c1.1,0.6,2.2,1.3,3.3,1.9
			c-7.5,4.4-15.1,8.7-22.6,13.1c-1.1,0.6-2.2,1.3-3.3,1.9c0-2.2,0-4.4,0-6.6"/>
	</g>
</g>
<g id="Planes">
	<g id="XMLID_50_">
		<path id="XMLID_59_" d="M82.7,269.6l-0.5,0l-0.5-0.6l0.3-1.3c0,0,1.4-6.3,1.4-6.3c0,0-5.3,0-5.3,0c-0.1,0-0.1,0-0.2,0.1l-3.2,3.2
			c0,0,0,0.1-0.1,0.1l-0.1,0.1l-0.7,0.1l-0.3-0.6c0-0.1,0-0.2,0.1-0.2L74,263c0.4-1.1,0.8-2.3,1.1-3.5c0,0,0-0.1,0-0.2
			c-0.4-1.1-0.8-2.3-1.1-3.4l-0.4-1.2l0.1-0.6l0.7,0l0.2,0.2l0.6,0.6c0.9,0.9,1.8,1.8,2.7,2.6c0.1,0.1,0.1,0.1,0.2,0.1l5.2,0
			c0,0,0.1,0,0.1,0c0,0-1.6-7.4-1.6-7.4l0-0.1l0.5-0.7l0.5,0c0.2,0,0.3,0,0.5,0c0.2,0,0.4,0.1,0.6,0.4l2.9,5.2
			c0.5,0.8,0.9,1.6,1.4,2.5c0,0.1,0,0.1,0.1,0.1c0.9,0,1.7,0,2.6,0l2.3,0c1,0,1.9,0.8,1.9,1.8c0,0.5-0.2,1-0.5,1.3
			c-0.4,0.4-0.8,0.6-1.4,0.6l-2.5,0c-0.8,0-2.4,0-2.4,0c-0.1,0-0.1,0-0.2,0.1c-0.7,1.3-4.2,7.6-4.2,7.6c-0.2,0.3-0.4,0.5-0.7,0.5
			C83,269.6,82.8,269.6,82.7,269.6z"/>
	</g>
	<text id="CurrentPlane" transform="matrix(1 0 0 1 517.9805	437.0)" class="st4 st5">M9</text>
	
	<text id="XMLID_38_" transform="matrix(1 0 0 1 847.8835 112.3332)" class="st4 st5">Incoming</text>
	<text id="Incoming0" transform="matrix(1 0 0 1 859.8835	138.0)" class="st4 st5"></text>
	<text id="Incoming1" transform="matrix(1 0 0 1 859.8835	168.0)" class="st4 st5"></text>
	<text id="Incoming2" transform="matrix(1 0 0 1 859.8835	198.0)" class="st4 st5"></text>
	<text id="Incoming3" transform="matrix(1 0 0 1 859.8835	228.0)" class="st4 st5"></text>
	<text id="Incoming4" transform="matrix(1 0 0 1 859.8835	258.0)" class="st4 st5"></text>
	<text id="Incoming5" transform="matrix(1 0 0 1 859.8835	288.0)" class="st4 st5"></text>
	<text id="Incoming6" transform="matrix(1 0 0 1 859.8835	318.0)" class="st4 st5"></text>
	<text id="Incoming7" transform="matrix(1 0 0 1 859.8835	348.0)" class="st4 st5"></text>
	<text id="Incoming8" transform="matrix(1 0 0 1 859.8835	378.0)" class="st4 st5"></text>
	<text id="Incoming9" transform="matrix(1 0 0 1 859.8835	408.0)" class="st4 st5"></text>
	<text id="Incoming10" transform="matrix(1 0 0 1 859.8835 438.0)" class="st4 st5"></text>
	
	<text id="XMLID_39_" transform="matrix(1 0 0 1 507.9063 130.6973)" class="st4 st6">Clear for take off</text>

	<text id="XMLID_40_" transform="matrix(1 0 0 1 508.3027 179.7203)" class="st4 st7">Clear for landing</text>
	<text id="XMLID_41_" transform="matrix(1 0 0 1 514.2698 292.5)" class="st4 st5">Next plane</text>
	<path id="XMLID_47_" class="st3" d="M551.3,329.5"/>
	<path id="XMLID_46_" class="st3" d="M555.5,315"/>
</g>
<g id="Buttons">
	<ellipse onclick="clearLanding();" id="XMLID_43_" class="st3" cx="553.2" cy="202.2" rx="11.5" ry="11.2"/>
	<ellipse onclick="clearTakeOff();" id="XMLID_42_" class="st3" cx="553.2" cy="151.2" rx="11.5" ry="11.2"/>
	<polyline onclick="nextPlane();" id="XMLID_45_" class="st3" points="558.5,325 558.5,332 582,318.5 558.5,304.9 558.5,311 558.5,311.5 529.5,311.5 
		529.5,325.5 558,325.5 	"/>
</g>
<g id="Paths">
	<path id="XMLID_24_" class="st8" d="M82,259.5h292.9c0,0-162.7,0-0.1,0S393.8,413,393.8,413c-55.7,63-378.1,0-378.1,0"/>
</g>
<g id="Planes">
	<path id="XMLID_32_" class="st9" d="M87.5,260.2c-0.3,0.5-0.6,0.9-1.1,1c-0.3,0.1-0.7,0.2-1,0.2c-1.5,0-3,0-4.4,0
		c-0.2,0-0.2,0.1-0.3,0.2c-1.4,2.5-2.8,5.1-4.2,7.6c-0.1,0.3-0.3,0.4-0.6,0.4c-0.5,0-1.1,0-1.6,0c-0.4,0-0.6-0.2-0.5-0.7
		c0.4-1.9,0.8-3.7,1.2-5.6c0.1-0.6,0.3-1.2,0.4-1.8c0-0.1,0-0.1,0-0.2c-0.1,0-0.1,0-0.2,0c-1.4,0-2.9,0-4.3,0
		c-0.1,0-0.2,0.1-0.3,0.1c-1.1,1.1-2.2,2.2-3.3,3.3c-0.2,0.2-0.3,0.2-0.5,0.2c-0.2,0-0.5,0-0.7,0c-0.2,0-0.3-0.1-0.3-0.3
		c-0.1-0.8,0.2-1.5,0.4-2.2c0.4-1.1,0.7-2.2,1.1-3.3c0-0.1,0-0.3,0-0.4c-0.5-1.4-1-2.9-1.4-4.3c-0.1-0.4-0.1-0.9-0.1-1.3
		c0,0,0.1-0.1,0.2-0.1c0.3,0,0.7,0,1,0c0.1,0,0.2,0.1,0.3,0.2c1.1,1.1,2.2,2.2,3.3,3.3c0.1,0.1,0.2,0.1,0.3,0.1c1.5,0,2.9,0,4.4,0
		c0,0,0.1,0,0.1,0c0-0.1,0-0.1,0-0.2c-0.5-2.4-1.1-4.9-1.6-7.3c-0.1-0.4,0.1-0.7,0.5-0.7c0.5,0,1.1,0,1.6,0c0.3,0,0.4,0.1,0.6,0.3
		c1.4,2.5,2.8,5.1,4.2,7.6c0.1,0.2,0.2,0.2,0.4,0.2c1.4,0,2.8,0,4.2,0c1,0,1.9,0.3,2.4,1.3C87.5,258.9,87.5,259.5,87.5,260.2z
		 M66.6,254.3C66.6,254.3,66.6,254.3,66.6,254.3c0,0.1,0,0.2,0,0.2c0.5,1.5,1,3,1.5,4.4c0,0.1,0.1,0.3,0,0.5c-0.5,1.5-1,3-1.5,4.6
		c0,0.1,0,0.1,0,0.2c0,0,0,0,0.1,0c0.1-0.1,0.1-0.2,0.2-0.2c1.1-1.1,2.2-2.1,3.2-3.2c0.1-0.1,0.3-0.2,0.5-0.2c1.7,0,3.5,0,5.2,0
		c0.5,0,0.6,0.2,0.5,0.7c-0.5,2.1-0.9,4.2-1.4,6.2c-0.1,0.4-0.2,0.8-0.3,1.3c0.3,0,0.5,0,0.7,0c0.2,0,0.3,0,0.3-0.2
		c1.4-2.5,2.8-5.1,4.2-7.6c0.1-0.3,0.3-0.4,0.6-0.4c1.6,0,3.2,0,4.8,0c0.8,0,1.4-0.6,1.4-1.4c0-0.7-0.6-1.3-1.4-1.3
		c-1.6,0-3.3,0-4.9,0c-0.3,0-0.4-0.1-0.6-0.3c-0.6-1.1-1.3-2.3-1.9-3.4c-0.8-1.4-1.6-2.8-2.4-4.3c0-0.1-0.1-0.1-0.1-0.2
		c-0.3,0-0.6,0-0.9,0c0,0.1,0,0.1,0,0.2c0.5,2.5,1.1,4.9,1.6,7.4c0.1,0.5-0.1,0.7-0.5,0.7c-1.7,0-3.5,0-5.2,0
		c-0.2,0-0.4-0.1-0.5-0.2c-1.1-1.1-2.2-2.1-3.3-3.2C66.7,254.4,66.7,254.3,66.6,254.3z"/>
        <animateTransform attributeName="transform"
                attributeType="XML"
                type="translate"
                from="0 0"
                to="150 0"
                begin="0s"
                dur="2s"
                repeatCount="indefinite"
        />		  
</g>
<script type="text/javascript"><![CDATA[

var time = setInterval(update, 1000);
var i = 0
var x = 0;
var numsAdded = 0;
var currentPlane = "M9";
var incomingList = [{name: "M9", message: "M9 is seeking clearance to land!"}]
var messages = []

var takeOffList = [];
for(j = 0; j < incomingList.length; j++) {
	document.getElementById("Incoming"+j).innerHTML = incomingList[j].name;
}
var names = ["Delta", "American", "United", "JetBlue", "Southwest", "Frontier", "Hack", "Alaska", "Spirit"];

function addPlane() {
	if(incomingList.length != 10) {
		var name = names[Math.floor(Math.random() * names.length)];
		name += " " +(Math.floor(Math.random()*999)+1);
		var rand = (Math.floor(Math.random()*2))
		var message;
		if(rand == 0)
			message = name + " is seeking clearance to land!";
		else
			message = name + " is seeking clearance to take off!";
		incomingList.push({name: name, message: message});
		document.getElementById("Incoming"+(incomingList.length-1)).innerHTML = name;
	} else {
		lose();
	}
}

for(var c = 0; c < 4; c++) {
	addPlane();
}

function lose() {

}

function update()
{
	var num = (Math.floor(Math.random()*100))
	if(num <= 30) {
		addPlane();	
	}

}
function clearTakeOff() { 
	console.log('take off');
	var k = i;
	for(; k < incomingList.length-1; k++) {
		document.getElementById("Incoming"+k).innerHTML = incomingList[k+1].name;
	}
	
	document.getElementById("Incoming"+k).innerHTML = "";
		var takeoff = incomingList.splice(i, 1);
	if(i == incomingList.length)
		document.getElementById("CurrentPlane").innerHTML = incomingList[i-1].name;
	else
		document.getElementById("CurrentPlane").innerHTML = incomingList[i].name;

	console.log(takeoff);
	document.getElementById("TakeOff"+x).innerHTML = takeoff[0].name;
	takeOffList.push(takeoff);
	x++;
 }
function clearLanding() { alert('Cleared for landing'); }
function nextPlane() { 
	console.log('Next plane');
	if(i == incomingList.length-1)
		i = 0;
	else
		i++;
	currentPlane = incomingList[i];
	document.getElementById("CurrentPlane").innerHTML = incomingList[i].name;
}
]]></script>
</svg>
