<?xml version="1.0" encoding="utf-8"?>
<!-- Generator: Adobe Illustrator 19.0.0, SVG Export Plug-In . SVG Version: 6.00 Build 0)  -->
<svg version="1.1" xmlns="http://www.w3.org/2000/svg" xmlns:xlink="http://www.w3.org/1999/xlink" x="0px" y="0px"
	 viewBox="0 0 960 560" style="enable-background:new 0 0 960 560;" xml:space="preserve">
<style type="text/css">
	.st0{fill:#FFFFFF;stroke:#000000;stroke-miterlimit:10;}
	.st1{fill:#FFFFFF;stroke:#000000;stroke-width:2;stroke-miterlimit:10;}
	.st2{fill:none;stroke:#000000;stroke-miterlimit:10;}
	.st3{stroke:#000000;stroke-miterlimit:10;}
</style>
<g id="Background">
	<rect id="XMLID_1_" x="141.7" y="9.7" class="st0" width="638" height="550.3"/>
	<rect id="XMLID_2_" x="158.8" y="25.1" class="st0" width="604.5" height="521.2"/>
	<circle id="XMLID_6_" class="st0" cx="771.3" cy="553.1" r="4.9"/>
	<circle id="XMLID_7_" class="st0" cx="757.3" cy="553.1" r="4.9"/>
	<circle id="XMLID_8_" class="st0" cx="730.8" cy="553.1" r="4.9"/>
	<circle id="XMLID_9_" class="st0" cx="744.3" cy="553.1" r="4.9"/>
	<circle id="XMLID_10_" class="st0" cx="717.3" cy="553.1" r="4.9"/>
	<path id="XMLID_19_" class="st1" d="M514,245.7"/>
	<polyline id="XMLID_4_" class="st1" points="561.9,245.7 702.9,167 691.6,146.7 514,245.7 200.3,245.7 200.3,269 472.2,269 
		331.2,347.6 342.6,368 520.1,269 730.8,269 730.8,245.7 561.9,245.7 	"/>
	<polygon id="XMLID_5_" class="st1" points="488.5,227 479,217.5 479,205.5 488.5,197 500.5,197 509,205.5 509,217.5 500.5,227 	"/>
	<rect id="XMLID_11_" x="243.3" y="197" class="st0" width="63.7" height="30"/>
	<rect id="XMLID_12_" x="328.5" y="197" class="st0" width="63.7" height="30"/>
	<path id="XMLID_14_" class="st2" d="M392.2,227c0,10.3,8.3,18.7,18.7,18.7"/>
	<path id="XMLID_18_" class="st2" d="M325.7,245.7"/>
	<path id="XMLID_17_" class="st2" d="M309.8,245.7"/>
	<path id="XMLID_16_" class="st2" d="M327.8,227c0,7.5-4.3,13.9-11.3,16.9v0c-6-3-10.4-9.4-10.4-16.9"/>
	<path id="XMLID_13_" class="st2" d="M243.3,227c0,10.3-8.3,18.7-18.7,18.7"/>
</g>
<g id="Planes">
	<path id="XMLID_32_" class="st3" d="M257.8,258.7c-0.4,0.6-0.8,1.2-1.5,1.4c-0.4,0.2-0.9,0.2-1.4,0.3c-2,0-3.9,0-5.9,0
		c-0.2,0-0.3,0.1-0.4,0.3c-1.9,3.4-3.7,6.8-5.6,10.2c-0.2,0.3-0.4,0.5-0.8,0.5c-0.7,0-1.4,0-2.1,0c-0.6,0-0.8-0.3-0.7-0.9
		c0.5-2.5,1.1-4.9,1.6-7.4c0.2-0.8,0.4-1.6,0.5-2.4c0-0.1,0-0.1,0-0.3c-0.1,0-0.2,0-0.3,0c-1.9,0-3.8,0-5.7,0
		c-0.1,0-0.3,0.1-0.4,0.2c-1.5,1.5-3,2.9-4.4,4.4c-0.2,0.2-0.4,0.3-0.7,0.3c-0.3,0-0.6,0-0.9,0c-0.2,0-0.3-0.1-0.4-0.4
		c-0.1-1,0.2-1.9,0.5-2.9c0.5-1.5,1-2.9,1.5-4.4c0-0.1,0-0.3,0-0.5c-0.6-1.9-1.3-3.8-1.9-5.8c-0.2-0.5-0.1-1.1-0.1-1.7
		c0,0,0.1-0.1,0.2-0.1c0.5,0,0.9,0,1.4,0c0.1,0,0.3,0.1,0.4,0.3c1.5,1.5,3,2.9,4.5,4.4c0.1,0.1,0.2,0.2,0.4,0.2c2,0,3.9,0,5.9,0
		c0,0,0.1,0,0.2,0c0-0.1,0-0.2,0-0.3c-0.7-3.3-1.4-6.5-2.2-9.8c-0.1-0.6,0.1-0.9,0.7-0.9c0.7,0,1.4,0,2.1,0c0.4,0,0.6,0.1,0.8,0.5
		c1.9,3.4,3.7,6.8,5.6,10.2c0.1,0.2,0.3,0.3,0.5,0.3c1.8,0,3.7,0,5.5,0c1.4,0,2.5,0.5,3.2,1.7C257.8,256.9,257.8,257.8,257.8,258.7z
		 M229.9,250.8C229.9,250.8,229.9,250.8,229.9,250.8c0,0.1,0,0.2,0.1,0.3c0.7,2,1.3,3.9,2,5.9c0.1,0.2,0.1,0.5,0,0.7
		c-0.7,2-1.3,4.1-2,6.1c0,0.1,0,0.1-0.1,0.2c0,0,0.1,0,0.1,0.1c0.1-0.1,0.1-0.2,0.2-0.3c1.4-1.4,2.9-2.9,4.3-4.3
		c0.2-0.2,0.4-0.3,0.7-0.3c2.3,0,4.6,0,7,0c0.6,0,0.9,0.3,0.7,0.9c-0.6,2.8-1.2,5.5-1.9,8.3c-0.1,0.6-0.2,1.1-0.4,1.7
		c0.4,0,0.7,0,1,0c0.2,0,0.3-0.1,0.5-0.3c1.9-3.4,3.7-6.8,5.6-10.2c0.2-0.4,0.4-0.5,0.9-0.5c2.2,0,4.3,0,6.5,0
		c1.1,0,1.9-0.8,1.9-1.9c0-1-0.8-1.8-1.8-1.8c-2.2,0-4.4,0-6.5,0c-0.4,0-0.6-0.1-0.8-0.4c-0.8-1.5-1.7-3.1-2.5-4.6
		c-1-1.9-2.1-3.8-3.1-5.7c0-0.1-0.1-0.2-0.2-0.2c-0.4,0-0.8,0-1.2,0c0,0.1,0,0.2,0,0.2c0.7,3.3,1.5,6.5,2.2,9.8
		c0.1,0.6-0.1,0.9-0.7,0.9c-2.3,0-4.6,0-6.9,0c-0.3,0-0.5-0.1-0.7-0.3c-1.5-1.4-2.9-2.9-4.4-4.3C230.1,250.9,230,250.8,229.9,250.8z
		">
	<animateTransform attributeName="transform"
		attributeType="XML"
		type="translate"
		from="0 0"
		to="150 0"
		begin="0s"
		dur="2s"
		repeatCount="indefinite"
	/>
</path>
</g>
</svg>
