<svg xmlns="http://www.w3.org/2000/svg" xmlns:xlink="http://www.w3.org/1999/xlink" viewBox="0 0 1445.36 609.31"><defs><radialGradient id="radial-gradient" cx="479.75" cy="382.83" r="362.01" gradientUnits="userSpaceOnUse"><stop offset="0" stop-color="#fff"/><stop offset="0.1" stop-color="#f9f9f9"/><stop offset="0.24" stop-color="#e7e7e7"/><stop offset="0.4" stop-color="#cacaca"/><stop offset="0.5" stop-color="#b4b4b4"/></radialGradient><radialGradient id="radial-gradient-2" cx="845.28" cy="139.91" r="127.72" gradientUnits="userSpaceOnUse"><stop offset="0.23" stop-color="#67c5e1"/><stop offset="0.7" stop-color="#48c4e2"/></radialGradient><radialGradient id="radial-gradient-3" cx="579.24" cy="116.89" r="155.69" xlink:href="#radial-gradient-2"/><radialGradient id="radial-gradient-4" cx="298.26" cy="104.18" r="121.01" xlink:href="#radial-gradient-2"/><radialGradient id="radial-gradient-5" cx="87.62" cy="106.16" r="97.2" xlink:href="#radial-gradient-2"/></defs><title>Home screen</title><g id="Room_Layout" data-name="Room Layout"><path d="M427.5,328.17h-.1C343.51,317.1,253.26,290.92,230.11,289L-.5,269.91V211.84h.2c3.91-.26,65-4.24,162.42-5.77,63.34-1,142-1,230.28,1.81,43.09,1.36,88.46,3.36,135.44,6.22,79,4.8,146.57,11.73,203.22,19.3,148.4,19.85,221.78,44.16,228.44,46.44l.5.17V560.2S626.54,388.81,550.81,360.36l-14.25-5.08L497.47,375l-95.34-27.37,25.27-14.41.1-.22Z" transform="translate(1 48.61)" style="fill:url(#radial-gradient)"/><path d="M402.13,347.63,497.47,375l39.09-19.72,14.25,5.08C626.54,388.81,960,560.2,960,560.2L558.33,560S484.91,455.82,427.52,416.37c-56.67-38.95-269.43-83.28-269.43-83.28L0,297.18l-.5-27.27L230.11,289c23.15,1.92,113.4,28.1,197.29,39.17l-31,17.83Z" transform="translate(1 48.61)" style="fill:#c49551"/><path d="M959.5.5V279.83c-6.66-2.28-80-26.59-228.44-46.44h0l1.71.22L780.25,0Z" transform="translate(1 48.61)" style="fill:url(#radial-gradient-2)"/><path d="M780.25,0,732.77,233.6l-1.71-.22-12-1.58L766.08.52l.11-.52h14.06Z" transform="translate(1 48.61)" style="fill:#b2b2b2"/><path d="M766.08.52l-47,231.28,12,1.58h0c-56.65-7.57-124.24-14.5-203.22-19.3-47-2.86-92.35-4.86-135.44-6.22l0-.85h14.06L448.48.39,449,.5H766Z" transform="translate(1 48.61)" style="fill:url(#radial-gradient-3)"/><path d="M558.33,560l-7.58.17S477.38,459.18,420,419.73C363.33,380.78,158.19,340,158.19,340L-.5,303.12l.5-5.94,158.09,35.91s212.76,44.33,269.43,83.28C484.91,455.82,558.33,560,558.33,560Z" transform="translate(1 48.61)" style="fill:#c49551"/><path d="M550.75,560.17-.5,560V303.12L158.19,340S363.33,380.78,420,419.73C477.38,459.18,550.75,560.17,550.75,560.17Z" transform="translate(1 48.61)" style="fill:#fff"/><path d="M434.41.5l.1-.5h14.05l-.08.39L406.49,207H392.43Z" transform="translate(1 48.61)" style="fill:#b2b2b2"/><path d="M434.41.5,392.43,207l0,.85c-88.26-2.77-166.94-2.81-230.28-1.81v-.59L189,.5Z" transform="translate(1 48.61)" style="fill:url(#radial-gradient-4)"/><polygon points="428.5 376.78 428.5 381.61 428.4 381.83 403.13 396.24 397.44 394.61 428.4 376.78 428.5 376.78" style="fill:#c49551"/><path d="M189,.5l-26.92,205h-13.5L175.54.5l.07-.5H189.1Z" transform="translate(1 48.61)" style="fill:#b2b2b2"/><path d="M175.54.5l-26.93,205h13.5v.59C64.73,207.59,3.61,211.57-.3,211.83L0,.5Z" transform="translate(1 48.61)" style="fill:url(#radial-gradient-5)"/><path d="M960,560.2S626.54,388.81,550.81,360.36l-14.25-5.08L497.47,375l-95.34-27.37L396.44,346l31-17.83C343.51,317.1,253.26,290.92,230.11,289L-.5,269.91V211.84h.2c3.91-.26,65-4.24,162.42-5.77,63.34-1,142-1,230.28,1.81,43.09,1.36,88.46,3.36,135.44,6.22,79,4.8,146.57,11.73,203.22,19.3,148.4,19.85,221.78,44.16,228.44,46.44l.5.17Z" transform="translate(1 48.61)" style="fill:none;stroke:#000;stroke-linecap:round;stroke-linejoin:round"/><path d="M162.11,205.47,189,.5l.07-.5H175.61l-.07.5-26.93,205Z" transform="translate(1 48.61)" style="fill:none;stroke:#000;stroke-linecap:round;stroke-linejoin:round;stroke-width:0.5px"/><path d="M392.43,207h14.06L448.48.39l.08-.39H434.51l-.1.5Z" transform="translate(1 48.61)" style="fill:none;stroke:#000;stroke-linecap:round;stroke-linejoin:round;stroke-width:0.5px"/><path d="M779.75,0H766.19l-.11.52-47,231.28,12,1.58,1.71.22L780.25,0" transform="translate(1 48.61)" style="fill:none;stroke:#000;stroke-linecap:round;stroke-linejoin:round;stroke-width:0.5px"/><polyline points="428.4 381.83 403.13 396.24 402.99 396.32" style="fill:none;stroke:#000;stroke-linecap:round;stroke-linejoin:round;stroke-width:0.5px"/><path d="M0,297.18l-.5,5.94L158.19,340S363.33,380.78,420,419.73c57.38,39.45,130.75,140.44,130.75,140.44l7.58-.17" transform="translate(1 48.61)" style="fill:none;stroke:#000;stroke-linecap:round;stroke-linejoin:round;stroke-width:0.5px"/><path d="M0,297.18l158.09,35.91s212.76,44.33,269.43,83.28C484.91,455.82,558.33,560,558.33,560l401.67.2" transform="translate(1 48.61)" style="fill:none;stroke:#000;stroke-linecap:round;stroke-linejoin:round;stroke-width:0.5px"/><polyline points="428.5 376.61 428.5 376.78 428.5 381.61" style="fill:none;stroke:#000;stroke-linecap:round;stroke-linejoin:round"/><line x1="1" y1="345.79" x2="0.5" y2="318.52" style="fill:none;stroke:#000;stroke-linecap:round;stroke-linejoin:round;stroke-width:0.5px"/><polyline points="0.7 260.95 0.7 260.44 1 49.11 176.54 49.11 177 49.11" style="fill:none;stroke:#000;stroke-linecap:round;stroke-linejoin:round"/><polyline points="190 49.11 190.03 49.11 435.41 49.11 436 49.11" style="fill:none;stroke:#000;stroke-linecap:round;stroke-linejoin:round"/><line x1="450" y1="49.11" x2="767" y2="49.11" style="fill:none;stroke:#000;stroke-linecap:round;stroke-linejoin:round"/><polyline points="780.75 48.61 781.25 48.61 960.5 49.11 960.5 328.44 960.5 328.61" style="fill:none;stroke:#000;stroke-linecap:round;stroke-linejoin:round"/><polyline points="551.75 608.78 0.5 608.61 0.5 351.73 0.5 351.61" style="fill:none;stroke:#000;stroke-linecap:round;stroke-linejoin:round"/><circle cx="1426.33" cy="18.63" r="15.33" style="fill:#b2b2b2"/><rect x="1435.53" y="8.83" width="7.04" height="7.04" style="fill:none"/><circle cx="1439.05" cy="12.35" r="3.41" style="fill:#b2b2b2;stroke:#000;stroke-linecap:round;stroke-linejoin:round;stroke-width:0.222547836747895px"/><rect x="1431.15" y="3.39" width="6.51" height="6.51" style="fill:none"/><circle cx="1434.41" cy="6.65" r="3.15" style="fill:#b2b2b2;stroke:#000;stroke-linecap:round;stroke-linejoin:round;stroke-width:0.205785199654985px"/><rect x="1423.48" width="7.25" height="7.25" style="fill:none"/><circle cx="1427.1" cy="3.62" r="3.51" style="fill:#b2b2b2;stroke:#000;stroke-linecap:round;stroke-linejoin:round;stroke-width:0.228942580286111px"/><rect x="1416.27" y="2.5" width="7.03" height="7.03" style="fill:none"/><circle cx="1419.79" cy="6.01" r="3.4" style="fill:#b2b2b2;stroke:#000;stroke-linecap:round;stroke-linejoin:round;stroke-width:0.222135551444557px"/><rect x="1411.84" y="8.41" width="4.79" height="4.79" style="fill:none"/><circle cx="1414.24" cy="10.8" r="2.32" style="fill:#b2b2b2;stroke:#000;stroke-linecap:round;stroke-linejoin:round;stroke-width:0.151472048559961px"/><rect x="1407.79" y="14.7" width="6.84" height="6.84" style="fill:none"/><circle cx="1411.21" cy="18.12" r="3.31" style="fill:#b2b2b2;stroke:#000;stroke-linecap:round;stroke-linejoin:round;stroke-width:0.216036750910476px"/><rect x="1411.07" y="22.68" width="5.49" height="5.49" style="fill:none"/><circle cx="1413.81" cy="25.43" r="2.66" style="fill:#b2b2b2;stroke:#000;stroke-linecap:round;stroke-linejoin:round;stroke-width:0.173356528678148px"/><rect x="1416.02" y="28.09" width="5.47" height="5.47" style="fill:none"/><circle cx="1418.76" cy="30.82" r="2.65" style="fill:#b2b2b2;stroke:#000;stroke-linecap:round;stroke-linejoin:round;stroke-width:0.172853914031153px"/><rect x="1423.62" y="31.4" width="4.89" height="4.89" style="fill:none"/><circle cx="1426.07" cy="33.85" r="2.37" style="fill:#b2b2b2;stroke:#000;stroke-linecap:round;stroke-linejoin:round;stroke-width:0.154634873665281px"/><rect x="1429.49" y="27.15" width="7.78" height="7.78" style="fill:none"/><circle cx="1433.38" cy="31.04" r="3.77" style="fill:#b2b2b2;stroke:#000;stroke-linecap:round;stroke-linejoin:round;stroke-width:0.245876324422579px"/><rect x="1435.84" y="23.15" width="5.57" height="5.57" style="fill:none"/><circle cx="1438.63" cy="25.94" r="2.7" style="fill:#b2b2b2;stroke:#000;stroke-linecap:round;stroke-linejoin:round;stroke-width:0.176099459761414px"/><rect x="1437.95" y="14.93" width="7.4" height="7.4" style="fill:none"/><circle cx="1441.65" cy="18.63" r="3.58" style="fill:#b2b2b2;stroke:#000;stroke-linecap:round;stroke-linejoin:round;stroke-width:0.233880300290567px"/><path d="M178,274c6.43,0,6.45-10,0-10s-6.45,10,0,10Z" transform="translate(1 48.61)"/><path d="M250,274c6.43,0,6.45-10,0-10s-6.45,10,0,10Z" transform="translate(1 48.61)"/><g style="opacity:0.5"><path d="M259.68,265a8.68,8.68,0,0,1-8.23.9c-2.54-.92-5.47,1-6.15,3.49a5.1,5.1,0,0,0,3.49,6.15,18.21,18.21,0,0,0,15.94-1.91c5.37-3.5.36-12.16-5-8.63Z" transform="translate(1 48.61)"/></g><g style="opacity:0.5"><path d="M1084,459.5a1.5,1.5,0,0,0,0-3,1.5,1.5,0,0,0,0,3Z" transform="translate(1 48.61)"/></g></g><g id="Room_Features" data-name="Room Features"><polygon points="904 373.77 839.68 485.18 841.27 485.9 961 539.93 961 543.2 834.32 486.93 903.13 367.77 961 382.34 961 387.98 904 373.77" style="fill:#9e9e9e"/><polygon points="961 387.98 960.5 392.27 903.43 378.25 841.27 485.9 839.68 485.18 904 373.77 961 387.98" style="fill:#666"/><polygon points="960.5 392.27 961 539.93 841.27 485.9 903.43 378.25 960.5 392.27" style="fill:#6c3"/><path d="M707.32,271.55l-49.6,85.92,2.21,1,106.33,48L826.75,303l.84-1.44Zm124.37,26.86L766.53,409l-.33-.18-112.62-50,53.06-91.89Z" transform="translate(1 48.61)" style="fill:#a0a0a0"/><polygon points="709.03 323.63 709.03 323.65 661.15 406.59 660.93 407.08 658.72 406.08 708.32 320.16 828.59 350.15 827.75 351.59 709.03 323.63" style="fill:#666"/><polygon points="827.75 351.59 767.26 455.07 660.93 407.08 661.15 406.59 709.03 323.65 709.03 323.63 827.75 351.59" style="fill:#6c3"/><polygon points="570.75 361.86 537.58 403.89 500.32 422.69 555.4 349.83 570.75 361.86" style="fill:#000d23"/><path d="M498.63,297.38l-7,13L522.7,319l6.95-13Zm-17.77-4.28-.09,0-.16,0c-1.61-.29-7.83-1.39-9.66-1.48a7.44,7.44,0,0,0-6.26,3.34c-1.88,2.47-28.24,39.71-28.56,42.42a6.3,6.3,0,0,0,1.93,5.54c1.08,1.07,5.76,3,6.17,3.21h0c2.56,1.31,4.8-.45,6.36-1.27,1.79-.93,6.31-6.05,6.74-8.22s-.49-7.82-.49-7.82l12.65-17.73a46.57,46.57,0,0,0,7,.31c1.71-.26,5.61-5.28,6.57-9.19s1.39-5.76-.65-8.16a2.66,2.66,0,0,0-1.63-.84Zm-11.5,48.38L464.42,348l7.37,2.07,7.24,2,8.47,2.38,8.75,2.46,4.78-6.68,4.5-6.28,4.28-6,4.31-6-8.86-2.46-8.45-2.34-7.28-2-6.47-1.79-4.46,5.9-4.44,5.86Zm85-40.26-55.08,72.86-84.76-22.87,55-72.7,35.1,9.39,1.92.51Z" transform="translate(1 48.61)" style="fill:#000d23"/><polygon points="530.65 354.6 523.7 367.6 492.64 358.98 499.63 345.99 530.65 354.6" style="fill:#30b246"/><polygon points="515.12 380.59 510.81 386.61 502.05 384.18 506.19 378.4 506.26 378.13 515.12 380.59" style="fill:#d1d1d1"/><polygon points="510.81 386.61 506.53 392.59 506.23 392.37 497.85 390.04 502.05 384.18 510.81 386.61" style="fill:#c7c8c9"/><path d="M507.27,274.06c1.25,2.71-.73,14.35-.73,14.35l-1.92-.51s2.27-9.92.19-13.46-7.4-7.79-7.4-7.79a3.4,3.4,0,0,1-2.18,1.32c-1.35.15-6.18-2.17-6.94-3s-1.87-2.81-1-4.59a4,4,0,0,1,3.91-2.07c1.35,0,6.11,2.61,6.81,3.7a3.83,3.83,0,0,1,.32,2.63S506.1,271.52,507.27,274.06Z" transform="translate(1 48.61)" style="fill:#474747"/><polygon points="506.53 392.59 502.03 398.87 493.27 396.44 497.85 390.04 506.23 392.37 506.53 392.59" style="fill:#bababa"/><polygon points="506.26 378.13 506.19 378.4 502.05 384.18 493.5 381.81 497.81 375.79 506.26 378.13" style="fill:#bababa"/><polygon points="502.05 384.18 497.85 390.04 489.3 387.67 493.5 381.81 502.05 384.18" style="fill:#bababa"/><polygon points="502.03 398.87 497.25 405.55 488.5 403.09 493.27 396.44 502.03 398.87" style="fill:#afafaf"/><polygon points="497.85 390.04 493.27 396.44 484.72 394.07 489.3 387.67 497.85 390.04" style="fill:#afafaf"/><polygon points="497.81 375.79 493.5 381.81 486.3 379.81 490.47 373.98 490.53 373.77 497.81 375.79" style="fill:#afafaf"/><polygon points="493.5 381.81 489.3 387.67 482.1 385.67 486.3 379.81 493.5 381.81" style="fill:#afafaf"/><polygon points="493.27 396.44 488.5 403.09 480.03 400.71 480.08 400.54 484.72 394.07 493.27 396.44" style="fill:#afafaf"/><polygon points="490.53 373.77 490.47 373.98 486.3 379.81 479.75 377.99 479.6 377.88 484.06 371.98 490.53 373.77" style="fill:#afafaf"/><polygon points="489.3 387.67 484.72 394.07 477.52 392.07 482.1 385.67 489.3 387.67" style="fill:#bababa"/><polygon points="486.3 379.81 482.1 385.67 475.17 383.75 475.16 383.74 479.6 377.88 479.75 377.99 486.3 379.81" style="fill:#afafaf"/><polygon points="484.72 394.07 480.08 400.54 480.03 400.71 472.79 398.68 477.52 392.07 484.72 394.07" style="fill:#afafaf"/><path d="M482.48,294c2,2.4,1.62,4.25.65,8.16s-4.86,8.93-6.57,9.19a46.57,46.57,0,0,1-7-.31l-12.65,17.73s.93,5.64.49,7.82-4.95,7.29-6.74,8.22c-1.56.82-3.8,2.58-6.36,1.27h0a5.86,5.86,0,0,1-1.15-.8c-3-2.68-1.11-8.71-1.11-8.71s6-8.92,7.25-11,14.9-18.71,16.84-22.32,7.42-8.65,7.42-8.65,4.28-1.84,7.12-1.47l.16,0,.09,0A2.66,2.66,0,0,1,482.48,294Z" transform="translate(1 48.61)" style="fill:#474747"/><polygon points="482.1 385.67 477.52 392.07 470.36 390.09 475.16 383.74 475.17 383.75 482.1 385.67" style="fill:#afafaf"/><path d="M480.86,293.1v.07l-.09,0-.16,0c-2.84-.37-7.12,1.47-7.12,1.47s-5.47,5-7.42,8.65-15.62,20.23-16.84,22.32-7.25,11-7.25,11-1.93,6,1.11,8.71a5.86,5.86,0,0,0,1.15.8c-.41-.17-5.09-2.14-6.17-3.21a6.3,6.3,0,0,1-1.93-5.54c.32-2.71,26.68-39.95,28.56-42.42a7.44,7.44,0,0,1,6.26-3.34c1.83.09,8.05,1.19,9.66,1.48l.16,0Z" transform="translate(1 48.61)" style="fill:#353535"/><polygon points="477.52 392.07 472.79 398.68 465.42 396.61 470.36 390.09 477.52 392.07" style="fill:#afafaf"/><polyline points="654.58 407.43 707.64 315.54 707.79 315.28" style="fill:none;stroke:#000;stroke-linecap:round;stroke-linejoin:round;stroke-width:0.5px"/><line x1="767.53" y1="457.64" x2="832.69" y2="347.02" style="fill:none;stroke:#000;stroke-linecap:round;stroke-linejoin:round;stroke-width:0.5px"/><polyline points="707.38 315.47 707.64 315.54 832.69 347.02" style="fill:none;stroke:#000;stroke-linecap:round;stroke-linejoin:round;stroke-width:0.5px"/><line x1="654.58" y1="407.43" x2="767.2" y2="457.46" style="fill:none;stroke:#000;stroke-linecap:round;stroke-linejoin:round;stroke-width:0.5px"/><polyline points="658.72 406.08 708.32 320.16 708.46 319.92" style="fill:none;stroke:#000;stroke-linecap:round;stroke-linejoin:round;stroke-width:0.5px"/><polyline points="767.26 455.07 827.75 351.59 828.59 350.15" style="fill:none;stroke:#000;stroke-linecap:round;stroke-linejoin:round;stroke-width:0.5px"/><polyline points="708.07 320.1 708.32 320.16 828.59 350.15" style="fill:none;stroke:#000;stroke-linecap:round;stroke-linejoin:round;stroke-width:0.5px"/><polyline points="658.72 406.08 660.93 407.08 767.26 455.07" style="fill:none;stroke:#000;stroke-linecap:round;stroke-linejoin:round;stroke-width:0.5px"/><line x1="661.15" y1="406.59" x2="709.03" y2="323.65" style="fill:none;stroke:#000;stroke-linecap:round;stroke-linejoin:round;stroke-width:0.5px"/><polyline points="708.89 323.6 709.03 323.63 827.75 351.59" style="fill:none;stroke:#000;stroke-linecap:round;stroke-linejoin:round;stroke-width:0.5px"/><polyline points="570.75 361.86 537.58 403.89 500.32 422.69" style="fill:none;stroke:#000;stroke-linecap:round;stroke-linejoin:round;stroke-width:0.5px"/><polyline points="555.4 349.83 500.32 422.69 415.56 399.82 470.52 327.12" style="fill:none;stroke:#000;stroke-linecap:round;stroke-linejoin:round;stroke-width:0.5px"/><polyline points="470.52 327.12 505.62 336.51 507.54 337.02 555.4 349.83" style="fill:none;stroke:#000;stroke-linecap:round;stroke-linejoin:round;stroke-width:0.5px"/><line x1="555.4" y1="349.83" x2="570.75" y2="361.86" style="fill:none;stroke:#000;stroke-linecap:round;stroke-linejoin:round;stroke-width:0.5px"/><path d="M444.26,346.09c2.56,1.31,4.8-.45,6.36-1.27,1.79-.93,6.31-6.05,6.74-8.22s-.49-7.82-.49-7.82l12.65-17.73a46.57,46.57,0,0,0,7,.31c1.71-.26,5.61-5.28,6.57-9.19s1.39-5.76-.65-8.16a2.66,2.66,0,0,0-1.63-.84l-.09,0-.16,0c-2.84-.37-7.12,1.47-7.12,1.47s-5.47,5-7.42,8.65-15.62,20.23-16.84,22.32-7.25,11-7.25,11-1.93,6,1.11,8.71a5.86,5.86,0,0,0,1.15.8" transform="translate(1 48.61)" style="fill:none;stroke:#000;stroke-linecap:round;stroke-linejoin:round;stroke-width:0.5px"/><path d="M481,293.12l-.13,0-.09,0-.16,0c-1.61-.29-7.83-1.39-9.66-1.48a7.44,7.44,0,0,0-6.26,3.34c-1.88,2.47-28.24,39.71-28.56,42.42a6.3,6.3,0,0,0,1.93,5.54c1.08,1.07,5.76,3,6.17,3.21h0" transform="translate(1 48.61)" style="fill:none;stroke:#000;stroke-linecap:round;stroke-linejoin:round;stroke-width:0.5px"/><polyline points="484.06 371.98 479.6 377.88 475.16 383.74 470.36 390.09 465.42 396.61" style="fill:none;stroke:#000;stroke-linecap:round;stroke-linejoin:round;stroke-width:0.5px"/><polyline points="515.12 380.59 510.81 386.61 506.53 392.59 502.03 398.87 497.25 405.55" style="fill:none;stroke:#000;stroke-linecap:round;stroke-linejoin:round;stroke-width:0.5px"/><polyline points="465.42 396.61 472.79 398.68 480.03 400.71 488.5 403.09 497.25 405.55" style="fill:none;stroke:#000;stroke-linecap:round;stroke-linejoin:round;stroke-width:0.5px"/><polyline points="484.06 371.98 490.53 373.77 497.81 375.79 506.26 378.13 515.12 380.59" style="fill:none;stroke:#000;stroke-linecap:round;stroke-linejoin:round;stroke-width:0.5px"/><polyline points="470.23 390.05 470.36 390.09 477.52 392.07 484.72 394.07 493.27 396.44 502.03 398.87 502.05 398.88" style="fill:none;stroke:#000;stroke-linecap:round;stroke-linejoin:round;stroke-width:0.5px"/><polyline points="475.17 383.75 482.1 385.67 489.3 387.67 497.85 390.04 506.23 392.37" style="fill:none;stroke:#000;stroke-linecap:round;stroke-linejoin:round;stroke-width:0.5px"/><polyline points="479.75 377.99 486.3 379.81 493.5 381.81 502.05 384.18 510.81 386.61" style="fill:none;stroke:#000;stroke-linecap:round;stroke-linejoin:round;stroke-width:0.5px"/><polyline points="499.59 345.98 499.63 345.99 530.65 354.6" style="fill:none;stroke:#000;stroke-linecap:round;stroke-linejoin:round;stroke-width:0.5px"/><line x1="492.64" y1="358.98" x2="523.7" y2="367.6" style="fill:none;stroke:#000;stroke-linecap:round;stroke-linejoin:round;stroke-width:0.5px"/><polyline points="499.64 345.97 499.63 345.99 492.64 358.98" style="fill:none;stroke:#000;stroke-linecap:round;stroke-linejoin:round;stroke-width:0.5px"/><line x1="530.65" y1="354.6" x2="523.7" y2="367.6" style="fill:none;stroke:#000;stroke-linecap:round;stroke-linejoin:round;stroke-width:0.5px"/><polyline points="506.19 378.4 502.05 384.18 497.85 390.04 493.27 396.44 488.5 403.09 488.31 403.36" style="fill:none;stroke:#000;stroke-linecap:round;stroke-linejoin:round;stroke-width:0.5px"/><polyline points="497.96 375.58 497.81 375.79 493.5 381.81 489.3 387.67 484.72 394.07 480.08 400.54" style="fill:none;stroke:#000;stroke-linecap:round;stroke-linejoin:round;stroke-width:0.5px"/><polyline points="490.47 373.98 486.3 379.81 482.1 385.67 477.52 392.07 472.79 398.68 472.6 398.94" style="fill:none;stroke:#000;stroke-linecap:round;stroke-linejoin:round;stroke-width:0.5px"/><path d="M504.62,287.9s2.27-9.92.19-13.46-7.4-7.79-7.4-7.79a3.4,3.4,0,0,1-2.18,1.32c-1.35.15-6.18-2.17-6.94-3s-1.87-2.81-1-4.59a4,4,0,0,1,3.91-2.07c1.35,0,6.11,2.61,6.81,3.7a3.83,3.83,0,0,1,.32,2.63s7.76,6.86,8.93,9.4c1.25,2.71-.73,14.35-.73,14.35" transform="translate(1 48.61)" style="fill:none;stroke:#000;stroke-linecap:round;stroke-linejoin:round;stroke-width:0.5px"/><polyline points="834.32 486.93 903.13 367.77 903.32 367.44" style="fill:none;stroke:#000;stroke-linecap:round;stroke-linejoin:round;stroke-width:0.5px"/><polyline points="902.78 367.68 903.13 367.77 961 382.34 961 387.98" style="fill:none;stroke:#000;stroke-linecap:round;stroke-linejoin:round;stroke-width:0.5px"/><polyline points="839.68 485.18 904 373.77 904.19 373.45" style="fill:none;stroke:#000;stroke-linecap:round;stroke-linejoin:round;stroke-width:0.5px"/><polyline points="903.68 373.69 904 373.77 961 387.98 960.5 392.27 903.43 378.25" style="fill:none;stroke:#000;stroke-linecap:round;stroke-linejoin:round;stroke-width:0.5px"/><polyline points="839.68 485.18 841.27 485.9 961 539.93 961 543.2 834.32 486.93" style="fill:none;stroke:#000;stroke-linecap:round;stroke-linejoin:round;stroke-width:0.5px"/><polyline points="841.25 485.94 841.27 485.9 903.43 378.25" style="fill:none;stroke:#000;stroke-linecap:round;stroke-linejoin:round;stroke-width:0.5px"/><line x1="960.5" y1="392.27" x2="961" y2="539.93" style="fill:none;stroke:#000;stroke-linecap:round;stroke-linejoin:round;stroke-width:0.5px"/></g><g id="Guide"><path d="M360.6,560H315s.67-163.33-9-164-9.67,164-9.67,164H135s.67-163.33-9-164-9.67,164-9.67,164H71.68s-.06-74,.07-101,.19-90,18.19-108c11.26-11.26,36.54-11.95,53.89-10.9,10.38.64,17.92,1.9,17.92,1.9l22.75,45.5,12.82-11.19L214.65,428l1.35,4,1.36-4.07,17.32-51.62L247.5,387.5,270,342a156.84,156.84,0,0,1,18.09-2.13,28.43,28.43,0,0,0,3.85-.2c17.25-.67,40.2,1.27,51.52,14.34,23.4,27,16,78,16,105S360.6,560,360.6,560Z" transform="translate(1 48.61)" style="fill:#7ac943"/><path d="M306,396c9.67.67,9,164,9,164H296.33S296.33,395.33,306,396Z" transform="translate(1 48.61)" style="fill:#006837"/><path d="M154,234c.12,13.19,1.21,39.79,10.4,49,10.41,10.41,18.66,19.24,20.83,20.83.49.36,1.83,1.39,3.73,2.78L188.5,324l-26.75,18s-7.54-1.26-17.92-1.9C125.9,338.21,117,324,117,324s18-19.5,18-36,3.5-54,9-72,17.75-36.75,27-45,27-9,45-9,35.5,0,45,9,22,27.67,27,45,8.33,54.25,9,72,18,36,18,36-7.95,13.84-23.06,15.69c-1.32.06-2.61.12-3.85.2A156.84,156.84,0,0,0,270,342l-27-18V307.18c2.22-1.56,3.9-2.81,4.75-3.37,3.47-2.32,10.51-10.32,20.83-20.69,9.11-9.16,10-35.83,10.07-49.12,0-1.76,0-3.29,0-4.51-8.5-1.78-17.66-30.82-17.66-30.82s-44.28,18.16-72,17.66-35,13.17-35,13.17C154,230.71,154,232.24,154,234Z" transform="translate(1 48.61)" style="fill:#af7e3e"/><path d="M278.66,229.49c0,1.22,0,2.75,0,4.51H261s-.17-9-18-9-18,9-18,9-1.67-4.51-9-4.51-9,4.51-9,4.51.5-9-18-9-18,9-18,9H154c0-1.76,0-3.29,0-4.5,0,0,7.28-13.67,35-13.17s72-17.66,72-17.66S270.16,227.71,278.66,229.49Z" transform="translate(1 48.61)" style="fill:#ffdabb"/><path d="M189,306.59c-1.9-1.39-3.24-2.42-3.73-2.78-2.17-1.59-10.42-10.42-20.83-20.83-9.19-9.19-10.28-35.79-10.4-49h17s-.88,17.46,9,18c9.63.53,9.63.53,18,0,9.88-.62,9-18,9-18s1.67-4.51,9-4.51,9,4.51,9,4.51-1.2,18,9,18h18c10.59,0,9-18,9-18h17.65c-.08,13.29-1,40-10.07,49.12-10.32,10.37-17.36,18.37-20.83,20.69-.85.56-2.53,1.81-4.75,3.37-6.81,4.8-18.63,12.59-26.5,12.74C208.44,320.07,195.45,311.3,189,306.59Zm45-22.09h-.36l.11-.25-13.13-5-4.74,1.87-4.26-1.87L198,284.5l0,0c.22.42,2.83,5.26,4.94,7a20,20,0,0,0,13,4.88c6.62,0,10.87-2.17,13.33-4.71a25.43,25.43,0,0,0,4-6.52C233.78,284.74,234,284.5,234,284.5Z" transform="translate(1 48.61)" style="fill:#ffdabb"/><polygon points="271 390.63 248.5 436.11 235.68 424.92 217 408.61 244 372.64 271 390.63" style="fill:#b2b2b2"/><path d="M261,234s1.59,18-9,18H234c-10.2,0-9-18-9-18s.17-9,18-9S261,234,261,234Z" transform="translate(1 48.61)" style="fill:#ffdabb"/><path d="M243,307.18V324l-27,36-27.5-36,.48-17.41c6.47,4.71,19.46,13.48,27.52,13.33C224.37,319.77,236.19,312,243,307.18Z" transform="translate(1 48.61)" style="fill:#ffdabb"/><path d="M234.68,376.31l-17.32,51.62a3.55,3.55,0,0,0-1.36-.43,3.63,3.63,0,0,0-1.35.47l-17.33-51.66L216,360ZM220.5,378a4.5,4.5,0,1,0-4.5,4.5A4.49,4.49,0,0,0,220.5,378Zm0,27a4.5,4.5,0,1,0-4.5,4.5A4.5,4.5,0,0,0,220.5,405Z" transform="translate(1 48.61)" style="fill:#fff"/><path d="M220.62,279.25l13.13,5-.11.25H198l13.62-5.25,4.26,1.87Z" transform="translate(1 48.61)" style="fill:#d6656d"/><path d="M198,284.5h35.64c-.06.16-.16.38-.28.65a36.52,36.52,0,0,1-7.1,5.39,30.28,30.28,0,0,0-9.93-1.54,33.1,33.1,0,0,0-10.2,1.54,38.44,38.44,0,0,1-8.11-6Z" transform="translate(1 48.61)" style="fill:#3f000b"/><path d="M233.36,285.15a25.43,25.43,0,0,1-4,6.52c-2.46,2.54-6.71,4.71-13.33,4.71a20,20,0,0,1-13-4.88c-2.11-1.71-4.72-6.55-4.94-7a38.44,38.44,0,0,0,8.11,6,22.15,22.15,0,0,0,9.87,3,19.92,19.92,0,0,0,10.26-3A36.52,36.52,0,0,0,233.36,285.15Z" transform="translate(1 48.61)" style="fill:#d6656d"/><path d="M216.33,289a30.28,30.28,0,0,1,9.93,1.54,19.92,19.92,0,0,1-10.26,3,22.15,22.15,0,0,1-9.87-3A33.1,33.1,0,0,1,216.33,289Z" transform="translate(1 48.61)" style="fill:#c1272d"/><circle cx="217" cy="426.61" r="4.5" style="fill:#b2b2b2"/><path d="M216,400.53a4.5,4.5,0,1,1-4.5,4.5A4.5,4.5,0,0,1,216,400.53Z" transform="translate(1 48.61)" style="fill:#b2b2b2"/><path d="M217.36,427.93,216,432l-1.35-4a3.63,3.63,0,0,1,1.35-.47A3.55,3.55,0,0,1,217.36,427.93Z" transform="translate(1 48.61)" style="fill:#b2b2b2"/><polygon points="189.5 372.61 217 408.61 198.32 424.92 185.5 436.11 162.75 390.61 189.5 372.61" style="fill:#b2b2b2"/><path d="M207,234s.88,17.38-9,18c-8.37.53-8.37.53-18,0-9.88-.54-9-18-9-18s-.5-9,18-9S207,234,207,234Z" transform="translate(1 48.61)" style="fill:#ffdabb"/><path d="M126,396c9.67.67,9,164,9,164H116.33S116.33,395.33,126,396Z" transform="translate(1 48.61)" style="fill:#006837"/><path d="M154,229.5c0,1.21,0,2.74,0,4.5.12,13.19,1.21,39.79,10.4,49,10.41,10.41,18.66,19.24,20.83,20.83.49.36,1.83,1.39,3.73,2.78,6.47,4.71,19.46,13.48,27.52,13.33,7.87-.15,19.69-7.94,26.5-12.74,2.22-1.56,3.9-2.81,4.75-3.37,3.47-2.32,10.51-10.32,20.83-20.69,9.11-9.16,10-35.83,10.07-49.12,0-1.76,0-3.29,0-4.51" transform="translate(1 48.61)" style="fill:none;stroke:#000;stroke-miterlimit:10"/><path d="M360.6,560s-1.1-74-1.1-101,7.36-78-16-105c-11.32-13.07-34.27-15-51.52-14.34-1.32.06-2.61.12-3.85.2A156.84,156.84,0,0,0,270,342l-27-18V306" transform="translate(1 48.61)" style="fill:none;stroke:#000;stroke-miterlimit:10"/><path d="M315,560s.67-163.33-9-164-9.67,164-9.67,164" transform="translate(1 48.61)" style="fill:none;stroke:#006837;stroke-miterlimit:10"/><path d="M135,560s.67-163.33-9-164-9.67,164-9.67,164" transform="translate(1 48.61)" style="fill:none;stroke:#006837;stroke-miterlimit:10"/><path d="M189,306l0,.59L188.5,324l-26.75,18s-7.54-1.26-17.92-1.9c-17.35-1.05-42.63-.36-53.89,10.9-18,18-18.06,81-18.19,108s-.07,101-.07,101H360.6" transform="translate(1 48.61)" style="fill:none;stroke:#000;stroke-miterlimit:10"/><polyline points="189.5 372.61 217 408.61 198.32 424.92 185.5 436.11 162.75 390.61" style="fill:none;stroke:#000;stroke-miterlimit:10"/><polyline points="244 372.64 217 408.61 235.68 424.92 248.5 436.11 271 390.63" style="fill:none;stroke:#000;stroke-miterlimit:10"/><polyline points="198.32 424.92 215.65 476.58 217 480.61 218.36 476.54 235.68 424.92" style="fill:none;stroke:#000;stroke-miterlimit:10"/><circle cx="217" cy="426.61" r="4.5" style="fill:none;stroke:#000;stroke-miterlimit:10"/><path d="M211.5,405a4.5,4.5,0,1,1,4.5,4.5A4.49,4.49,0,0,1,211.5,405Z" transform="translate(1 48.61)" style="fill:none;stroke:#000;stroke-miterlimit:10"/><path d="M214.65,428a3.63,3.63,0,0,1,1.35-.47,3.55,3.55,0,0,1,1.36.43" transform="translate(1 48.61)" style="fill:none;stroke:#000;stroke-miterlimit:10"/><path d="M153,234h18s-.88,17.46,9,18c9.63.53,9.63.53,18,0,9.88-.62,9-18,9-18s1.67-4.51,9-4.51,9,4.51,9,4.51-1.2,18,9,18h18c10.59,0,9-18,9-18h18" transform="translate(1 48.61)" style="fill:none;stroke:#000;stroke-miterlimit:10;stroke-width:2px"/><path d="M171,234s-.5-9,18-9,18,9,18,9" transform="translate(1 48.61)" style="fill:none;stroke:#000;stroke-miterlimit:10;stroke-width:2px"/><path d="M225,234s.17-9,18-9,18,9,18,9" transform="translate(1 48.61)" style="fill:none;stroke:#000;stroke-miterlimit:10;stroke-width:2px"/><path d="M198,284.5h36s-.22.24-.64.65a36.52,36.52,0,0,1-7.1,5.39,19.92,19.92,0,0,1-10.26,3,22.15,22.15,0,0,1-9.87-3,38.44,38.44,0,0,1-8.11-6" transform="translate(1 48.61)" style="fill:none;stroke:#000;stroke-miterlimit:10"/><path d="M233.64,284.5c-.06.16-.16.38-.28.65a25.43,25.43,0,0,1-4,6.52c-2.46,2.54-6.71,4.71-13.33,4.71a20,20,0,0,1-13-4.88c-2.11-1.71-4.72-6.55-4.94-7l0,0" transform="translate(1 48.61)" style="fill:none;stroke:#000;stroke-miterlimit:10"/><path d="M206.13,290.54a33.1,33.1,0,0,1,10.2-1.54,30.28,30.28,0,0,1,9.93,1.54" transform="translate(1 48.61)" style="fill:none;stroke:#000;stroke-miterlimit:10"/><path d="M207,269s4.69,5.31,8.88,5.31S225,269,225,269" transform="translate(1 48.61)" style="fill:none;stroke:#000;stroke-miterlimit:10"/><path d="M154,229.5s7.28-13.67,35-13.17,72-17.66,72-17.66,9.16,29,17.66,30.82" transform="translate(1 48.61)" style="fill:none;stroke:#000;stroke-miterlimit:10"/><path d="M288,339.89h.09a28.43,28.43,0,0,0,3.85-.2C307.05,337.84,315,324,315,324s-17.33-18.25-18-36-4-54.67-9-72-17.5-36-27-45-27-9-45-9-35.75.75-45,9-21.5,27-27,45-9,55.5-9,72-18,36-18,36,8.9,14.21,26.83,16.1" transform="translate(1 48.61)" style="fill:none;stroke:#000;stroke-miterlimit:10"/><path d="M232,240.25s2.79-6.06,11.49-6.06,11.59,6.06,11.59,6.06" transform="translate(1 48.61)" style="fill:none;stroke:#000;stroke-miterlimit:10"/><path d="M201.63,239.25s-3-6.08-12.35-6.08-13.12,5.19-13.12,5.19" transform="translate(1 48.61)" style="fill:none;stroke:#000;stroke-miterlimit:10"/></g></svg>